<?xml version="1.0" encoding="UTF-8"?>
<svg id="uuid-ef9adce2-b530-4703-a839-3b297e2b2942"
	xmlns="http://www.w3.org/2000/svg"
	xmlns:xlink="http://www.w3.org/1999/xlink" viewBox="0 0 1969.17 837.5">
	<defs>
		<clipPath id="uuid-2be5a0d0-741a-4824-80e2-8634425f7648">
			<rect width="1969.17" height="837.5" style="fill:none; stroke-width:0px;"/>
		</clipPath>
		<radialGradient id="uuid-f028f18b-0f5b-4b49-9db5-260bf75e34fb" cx="1241.75" cy="339.47" fx="1241.75" fy="339.47" r="27.36" gradientTransform="translate(603.74 -778.62) rotate(45)" gradientUnits="userSpaceOnUse">
			<stop offset="0" stop-color="#4de0ff"/>
			<stop offset=".03" stop-color="#48d3f5"/>
			<stop offset=".16" stop-color="#35a0ce"/>
			<stop offset=".3" stop-color="#2475ac"/>
			<stop offset=".44" stop-color="#175191"/>
			<stop offset=".58" stop-color="#0d367c"/>
			<stop offset=".72" stop-color="#05226d"/>
			<stop offset=".86" stop-color="#011663"/>
			<stop offset="1" stop-color="#001361"/>
		</radialGradient>
		<radialGradient id="uuid-9719e0e0-a4fa-414d-9fff-68965f9c9f01" cx="1027.38" cy="-17.87" fx="1027.38" fy="-17.87" r="27.36" gradientTransform="translate(763.24 -1010.88) rotate(76.1)" xlink:href="#uuid-f028f18b-0f5b-4b49-9db5-260bf75e34fb"/>
		<radialGradient id="uuid-070ae924-bb51-4023-8e55-61ebcce374b6" cx="1461.56" cy="91.81" fx="1461.56" fy="91.81" r="27.36" gradientTransform="translate(493 -1006.59) rotate(45)" xlink:href="#uuid-f028f18b-0f5b-4b49-9db5-260bf75e34fb"/>
		<radialGradient id="uuid-7a13e34c-75b9-45f2-b84d-5530a2cc0f0f" cx="511.51" cy="171.47" fx="511.51" fy="171.47" r="27.36" gradientTransform="translate(560.87 -365.75) rotate(76.72)" xlink:href="#uuid-f028f18b-0f5b-4b49-9db5-260bf75e34fb"/>
		<radialGradient id="uuid-ae841f71-4c5e-4157-bcf0-0b98d69e7cac" cx="452.38" cy="559.27" fx="452.38" fy="559.27" r="27.36" gradientTransform="translate(874.65 -23.07) rotate(74.92)" xlink:href="#uuid-f028f18b-0f5b-4b49-9db5-260bf75e34fb"/>
		<radialGradient id="uuid-946a0187-45c7-4fb0-9ff3-7b094a175ac6" cx="757.7" cy="568.07" fx="757.7" fy="568.07" r="27.36" gradientTransform="translate(1128.4 -303.36) rotate(76.18)" xlink:href="#uuid-f028f18b-0f5b-4b49-9db5-260bf75e34fb"/>
		<radialGradient id="uuid-373ebc6f-2b3a-47cc-8647-6ab3a0b45a87" cx="1498.83" cy="651.89" fx="1498.83" fy="651.89" r="27.36" gradientTransform="translate(1773.95 -959.25) rotate(76.18)" xlink:href="#uuid-f028f18b-0f5b-4b49-9db5-260bf75e34fb"/>
		<radialGradient id="uuid-4c106224-fff2-4dea-b463-5a4973450e90" cx="1714.62" cy="633.15" fx="1714.62" fy="633.15" r="27.36" gradientTransform="translate(949.91 -1026.98) rotate(45)" xlink:href="#uuid-f028f18b-0f5b-4b49-9db5-260bf75e34fb"/>
		<radialGradient id="uuid-2138764d-49a4-4750-9b38-9679ba3db772" cx="1897.38" cy="68.14" fx="1897.38" fy="68.14" r="27.36" gradientTransform="translate(603.91 -1321.69) rotate(45)" xlink:href="#uuid-f028f18b-0f5b-4b49-9db5-260bf75e34fb"/>
		<radialGradient id="uuid-f16e7bca-fa88-490b-8d9a-e071a52cc252" cx="1466.49" cy="488.57" fx="1466.49" fy="488.57" r="103.34" gradientUnits="userSpaceOnUse">
			<stop offset="0" stop-color="#d6ffff"/>
			<stop offset=".09" stop-color="#aed3e1"/>
			<stop offset=".22" stop-color="#80a1c0"/>
			<stop offset=".35" stop-color="#5975a2"/>
			<stop offset=".48" stop-color="#39518b"/>
			<stop offset=".61" stop-color="#203678"/>
			<stop offset=".74" stop-color="#0e226b"/>
			<stop offset=".87" stop-color="#031663"/>
			<stop offset="1" stop-color="#001361"/>
		</radialGradient>
		<radialGradient id="uuid-b59acb39-78bc-44b2-82d4-a8026d15e4e8" cx="758" cy="12.71" fx="758" fy="12.71" r="71.16" xlink:href="#uuid-f16e7bca-fa88-490b-8d9a-e071a52cc252"/>
		<radialGradient id="uuid-21afc5ed-2085-47d2-8762-56f62739064c" cx="512.45" cy="407.5" fx="512.45" fy="407.5" r="47.43" xlink:href="#uuid-f16e7bca-fa88-490b-8d9a-e071a52cc252"/>
		<radialGradient id="uuid-872bc5fc-9e15-48b1-b12e-5e0bbfd6099c" cx="823.65" cy="808" fx="823.65" fy="808" r="47.43" xlink:href="#uuid-f16e7bca-fa88-490b-8d9a-e071a52cc252"/>
		<radialGradient id="uuid-db374f47-d5fa-49a4-aaa2-8e04ba825d70" cx="94.81" cy="116.07" fx="94.81" fy="116.07" r="47.43" xlink:href="#uuid-f16e7bca-fa88-490b-8d9a-e071a52cc252"/>
		<radialGradient id="uuid-89f55f75-23f1-40f6-be7a-54f98d273f1d" cx="1897.38" cy="513.56" fx="1897.38" fy="513.56" r="39.68" xlink:href="#uuid-f16e7bca-fa88-490b-8d9a-e071a52cc252"/>
	</defs>
	<g style="clip-path:url(#uuid-2be5a0d0-741a-4824-80e2-8634425f7648);">
		<rect x="-22.26" y="-283.73" width="2003.29" height="1148.46" style="fill:#001361; stroke-width:0px;"/>
		<circle cx="1241.75" cy="339.47" r="27.36" transform="translate(123.66 977.48) rotate(-45)" style="fill:url(#uuid-f028f18b-0f5b-4b49-9db5-260bf75e34fb); stroke-width:0px;"/>
		<circle cx="1027.38" cy="-17.87" r="27.36" transform="translate(797.93 983.72) rotate(-76.1)" style="fill:url(#uuid-9719e0e0-a4fa-414d-9fff-68965f9c9f01); stroke-width:0px;"/>
		<circle cx="1461.56" cy="91.81" r="27.36" transform="translate(363.16 1060.37) rotate(-45)" style="fill:url(#uuid-070ae924-bb51-4023-8e55-61ebcce374b6); stroke-width:0px;"/>
		<circle cx="511.51" cy="171.47" r="27.36" transform="translate(227.1 629.9) rotate(-76.72)" style="fill:url(#uuid-7a13e34c-75b9-45f2-b84d-5530a2cc0f0f); stroke-width:0px;"/>
		<circle cx="452.38" cy="559.27" r="27.36" transform="translate(-205.34 850.52) rotate(-74.92)" style="fill:url(#uuid-ae841f71-4c5e-4157-bcf0-0b98d69e7cac); stroke-width:0px;"/>
		<circle cx="757.7" cy="568.07" r="27.36" transform="translate(25.13 1168.19) rotate(-76.18)" style="fill:url(#uuid-946a0187-45c7-4fb0-9ff3-7b094a175ac6); stroke-width:0px;"/>
		<circle cx="1498.83" cy="651.89" r="27.36" transform="translate(507.88 1951.69) rotate(-76.18)" style="fill:url(#uuid-373ebc6f-2b3a-47cc-8647-6ab3a0b45a87); stroke-width:0px;"/>
		<circle cx="1714.62" cy="633.15" r="27.36" transform="translate(54.5 1397.87) rotate(-45)" style="fill:url(#uuid-4c106224-fff2-4dea-b463-5a4973450e90); stroke-width:0px;"/>
		<circle cx="1897.38" cy="68.14" r="27.36" transform="translate(507.55 1361.61) rotate(-45)" style="fill:url(#uuid-2138764d-49a4-4750-9b38-9679ba3db772); stroke-width:0px;"/>
		<circle cx="1466.49" cy="488.57" r="103.34" style="fill:url(#uuid-f16e7bca-fa88-490b-8d9a-e071a52cc252); stroke-width:0px;"/>
		<circle cx="758" cy="12.71" r="71.16" style="fill:url(#uuid-b59acb39-78bc-44b2-82d4-a8026d15e4e8); stroke-width:0px;"/>
		<circle cx="512.45" cy="407.5" r="47.43" style="fill:url(#uuid-21afc5ed-2085-47d2-8762-56f62739064c); stroke-width:0px;"/>
		<circle cx="823.65" cy="808" r="47.43" style="fill:url(#uuid-872bc5fc-9e15-48b1-b12e-5e0bbfd6099c); stroke-width:0px;"/>
		<circle cx="94.81" cy="116.07" r="47.43" style="fill:url(#uuid-db374f47-d5fa-49a4-aaa2-8e04ba825d70); stroke-width:0px;"/>
		<circle cx="1897.38" cy="513.56" r="39.68" style="fill:url(#uuid-89f55f75-23f1-40f6-be7a-54f98d273f1d); stroke-width:0px;"/>
		<polygon points="188.04 864.74 -22.26 791.1 -22.26 790.01 191.14 864.74 188.04 864.74" style="fill:#00abe3; stroke-width:0px;"/>
		<path d="m1981.03,115.64l-79.37-46.76,79.37,13.63v-1.04l-82.7-14.2,82.7-113.94v-1.74l-83.26,114.72-39.85-292.02,123.12,36.06v-1.07l-122.92-36.01,38.28-57h-1.23l-37.99,56.56-74.99-56.56h-1.7l75.98,57.31-392.44,317.2,22.51-374.51h-1.02l-22.47,373.95-223.47-373.95h-1.19l223.73,374.39L824.53-228.62l79.3-55.11h-1.79l-77.9,54.14-10.43-54.14h-1.03l10.4,54.45-138.51-54.45h-2.79l140.24,55.14-245.11,79.61v-134.74h-1.02v134.73l-384.75-134.73h-3.09l385.03,134.83-509.65-16.78L-2.97-283.73h-1.17l66.21,117.7-84.32-24.7v1.07l84.54,24.76L-22.26-48.41v1.74l85.49-117.78L508.59,172.65-22.26,81.48v1.04l532.52,91.46,244.87,392.85L-22.26,115.57v1.18l776.89,450.97-300.55-9.5L-22.26,140.3v1.36l474.19,416.03-356.77-92.34L-22.26,232.37v2.27l116.36,230.89-116.36,50.52v1.12l116.04-50.37-116.04,250.57v2.44l117.35-253.41,357.24,92.46L-22.26,767.36v1.12l475.89-209.07,121.93,262.79L-22.26,781.93v1.03l598.14,40.28v41.5h1.02v-41.23l104.87,41.23h2.8l-107.38-42.22,179.18-252.94,56.14,295.16h1.04l-56.24-295.67,381.93,130.81-237.21,164.86h1.79l236.38-164.29,98.17,164.29h1.19l-98.37-164.61,357.08-47.88-12.77,212.5h1.02l12.75-212.11,281.21,212.11h1.7l-280.86-211.85,450.21,127.92-56.37,83.93h1.23l55.91-83.25,28.72,51.05v-2.09l-27.57-49.01,27.57,9.65v-1.08l-24.95-8.74,24.95,1.68v-1.03l-26.57-1.79,26.57-11.67v-1.12l-27.65,12.15,27.65-59.7v-2.43l-28.9,62.41-237.24-147.07,266.14-115.54v-1.12l-266.41,115.65,182.91-562.73,83.49,165.67v-2.27l-81.95-162.61,81.95,71.9v-1.36l-80.86-70.94,80.86,47.39v-1.11Zm-267.53,516.2l-470.64-293.22L1896.6,68.53l-183.1,563.31Zm-211.87,20.07l212.02-18.77,235.31,145.87-447.34-127.11Zm-257.52-311.31l468.1,291.64-213.16,18.87-254.94-310.51Zm-103.05,358.5l100.91-359.5,255.88,311.65-356.79,47.84Zm-383.06-130.88l482.95-228.75-100.94,359.59-382.01-130.84Zm-.3-.99L1026.36-17.58l214.66,355.89-483.32,228.93Zm-2.02,1.55l-179.19,252.96-121.79-262.48,300.98,9.52Zm-244.34-395.01L1025.32-17.76l-268.74,584.98-245.24-393.45Zm64.44-321.56l-65.54,320.4L64.72-164.61l511.06,16.82Zm246.33-79.76L511.51,171.47l65.33-319.36,245.26-79.66Zm203.29,208.66l-513.31,191.28,311.49-400.16,201.82,208.89Zm433.63,109.14l-432.45-109.39-200.59-207.62L1459.02,90.26Zm3.49,1.94l-220.67,245.47L1027.38-17.87l435.12,110.07Zm431.95-23.89l-650.81,268.88,220.06-244.79,430.76-24.1Zm2.4-1.16l-431.85,24.16,391.91-316.78,39.94,292.62Z" style="fill:#00abe3; stroke-width:0px;"/>
		<circle cx="1241.75" cy="337.67" r="5.51" style="fill:#00abe3; stroke-width:0px;"/>
		<circle cx="1498.63" cy="651.89" r="5.51" transform="translate(317.69 1781.6) rotate(-67.24)" style="fill:#00abe3; stroke-width:0px;"/>
		<circle cx="1141.07" cy="699.11" r="5.51" transform="translate(-97.71 192.93) rotate(-9.27)" style="fill:#00abe3; stroke-width:0px;"/>
		<circle cx="756.16" cy="568.07" r="5.51" style="fill:#00abe3; stroke-width:0px;"/>
		<circle cx="452.38" cy="558.69" r="5.51" transform="translate(-84.02 80.09) rotate(-9.26)" style="fill:#00abe3; stroke-width:0px;"/>
		<circle cx="510.57" cy="172.61" r="5.51" style="fill:#00abe3; stroke-width:0px;"/>
		<circle cx="1463.28" cy="91.81" r="5.51" style="fill:#00abe3; stroke-width:0px;"/>
		<circle cx="1897.38" cy="68.14" r="5.51" style="fill:#00abe3; stroke-width:0px;"/>
		<circle cx="1714.62" cy="631.7" r="5.51" style="fill:#00abe3; stroke-width:0px;"/>
		<path d="m1981.03,463.67l-78.12,46.26,78.12-68.53v-2.72l-80.31,70.46,80.31-159.36v-4.55l-83.39,165.47L1715.46-49.77l265.57,115.29v-2.23l-265.04-115.06,235.92-146.25,29.12,62.89v-4.87l-26.61-57.47,26.61,11.69v-2.23l-24.45-10.74,24.45-1.65v-2.05l-21.22,1.43,21.22-7.43v-2.17l-26.46,9.26,26.46-47.04v-4.17l-28.76,51.12-55.26-82.28h-2.47l56.17,83.63-446.9,126.98,279.22-210.61h-3.4l-279.9,211.12-12.69-211.12h-2.05l12.73,211.91-355.7-47.7,98.13-164.21h-2.38l-97.74,163.55-235.33-163.55h-3.59l236.99,164.7L757.98,11.17l56.09-294.9h-2.08L756.09,10.16l-178.11-251.43,107.98-42.45h-5.59l-102.96,40.48v-40.48h-2.05v41.02L-22.26-202.46v2.05l597-40.2L453.38,20.94-22.26-188.02v2.23L450.77,22.03,95.38,114.02-22.26-140.01v4.87L92.75,113.21-22.26,63.29v2.23l115.66,50.21L-22.26,345.23v4.55L95.51,116.1,449.98,24.35-22.26,438.67v2.72L454.29,23.3l298.34-9.43L-22.26,463.67v2.37L753.6,15.66l-243.66,390.91L-22.26,497.98v2.08l528.86-90.84L63.34,744.74l-85.6-117.93v3.48l83.7,115.32-83.7,24.52v2.13l83.26-24.39L-4.73,864.74h2.35l66.12-117.55,506.02-16.66-383.25,134.2h6.19l382.68-134v134h2.05v-134.04l243.08,78.95-140.12,55.09h5.59l136.65-53.73-10.63,53.73h2.05l10.69-53.1,76.4,53.1h3.59l-79.19-55.04,635.25-318.11-222.99,373.15h2.38l222.46-372.27,22.37,372.27h2.05l-22.44-373.38,391.03,316.06-76,57.32h3.4l74.01-55.83,37.5,55.83h2.47l-38.09-56.71,122.1-35.77v-2.13l-122.5,35.88,39.58-289.98,82.93,114.25v-3.48l-81.8-112.7,81.8-14.05v-2.08l-75.14,12.91,75.14-44.99v-2.23Zm-85.25,47.92l-651.8-269.29L1713.22-50.05l182.56,561.64Zm49.82-708.1l-232.06,143.86-209.09-18.51,441.16-125.35Zm-446.32,126.95l211.37,18.71-464.16,289.19,252.79-307.9Zm-2.41-.3l-254.67,310.19-100.44-357.8,355.11,47.62Zm-357.2-47.52l100.49,357.99L759.36,12.86l380.31-130.25Zm100.62,360.31l-213.86,354.57L758.75,14.84l481.54,228.08ZM455.51,21.21l121.07-260.92L754.71,11.75l-299.2,9.46Zm301-6.34l267.83,583-512.24-190.88L756.51,14.87ZM66.31,745.06l443.58-335.76,65.26,319.01-508.84,16.75Zm510.97-16.56l-64.83-316.92,308.22,395.97-243.39-79.05Zm246.33,79.49l-310.02-398.28,510.89,190.38-200.87,207.9Zm4.82-2.04l198.41-205.35,427.74-108.2-626.14,313.55Zm200.04-207.88l213.45-353.89,219.65,244.33-433.09,109.56Zm435.47-109.98l-218.41-242.95,645.94,266.87-427.54-23.92Zm392.6,317.4l-389.97-315.21,429.71,24.04-39.74,291.17Z" style="fill:#fff; stroke-width:0px;"/>
		<circle cx="1463.45" cy="489.1" r="21.52" style="fill:#fff; stroke-width:0px;"/>
		<circle cx="756.65" cy="12.71" r="16.89" style="fill:#fff; stroke-width:0px;"/>
		<circle cx="510.57" cy="407.5" r="13.24" transform="translate(-79.97 128.21) rotate(-13.28)" style="fill:#fff; stroke-width:0px;"/>
		<circle cx="823.53" cy="809.56" r="10.34" style="fill:#fff; stroke-width:0px;"/>
		<circle cx="1896.35" cy="513.56" r="6.26" transform="translate(192.28 1491.34) rotate(-45)" style="fill:#fff; stroke-width:0px;"/>
		<circle cx="1857.3" cy="807.44" r="6.26" transform="translate(-135.83 448.32) rotate(-13.28)" style="fill:#fff; stroke-width:0px;"/>
		<circle cx="453.89" cy="22.28" r="6.26" transform="translate(7.02 104.88) rotate(-13.28)" style="fill:#fff; stroke-width:0px;"/>
		<circle cx="94.81" cy="115.22" r="6.26" style="fill:#fff; stroke-width:0px;"/>
		<circle cx="63.12" cy="746.19" r="6.26" transform="translate(-650.42 518.95) rotate(-67.5)" style="fill:#fff; stroke-width:0px;"/>
		<circle cx="576.4" cy="729.32" r="6.26" transform="translate(-150.97 150.46) rotate(-13.17)" style="fill:#fff; stroke-width:0px;"/>
		<circle cx="1026.3" cy="599.68" r="6.26" style="fill:#fff; stroke-width:0px;"/>
		<circle cx="1241.75" cy="242.48" r="6.26" transform="translate(192.24 949.07) rotate(-45)" style="fill:#fff; stroke-width:0px;"/>
	</g>
</svg>